<?xml version="1.0" standalone="no"?>
<!DOCTYPE svg PUBLIC "-//W3C//DTD SVG 20010904//EN"
 "http://www.w3.org/TR/2001/REC-SVG-20010904/DTD/svg10.dtd">
<svg version="1.0" xmlns="http://www.w3.org/2000/svg"
 width="99.000000pt" height="99.000000pt" viewBox="0 0 99.000000 99.000000"
 preserveAspectRatio="xMidYMid meet">
<metadata>
Created by potrace 1.10, written by Peter Selinger 2001-2011
</metadata>
<g transform="translate(0.000000,99.000000) scale(0.100000,-0.100000)"
fill="#000000" stroke="none">
<path d="M11 976 c-9 -10 -11 -95 -9 -306 l3 -292 24 -19 c19 -15 40 -19 112
-19 83 0 89 -1 89 -21 0 -13 -10 -23 -30 -30 -27 -10 -30 -16 -30 -50 0 -35 3
-41 30 -50 32 -12 38 -35 19 -71 -9 -17 -6 -25 17 -49 25 -26 28 -27 55 -14
35 19 55 11 68 -26 7 -19 17 -29 30 -29 19 0 21 6 21 68 1 111 47 202 127 249
43 25 43 25 88 7 40 -15 53 -15 93 -5 26 7 56 14 67 17 32 7 106 -55 139 -117
24 -44 31 -69 34 -137 3 -55 8 -82 16 -79 32 11 11 178 -32 247 -25 40 -92
102 -123 112 -8 3 -4 15 10 38 20 33 21 48 21 313 l0 277 -414 0 c-343 0 -416
-2 -425 -14z m809 -66 l0 -50 -395 0 -395 0 0 50 0 50 395 0 395 0 0 -50z m0
-122 l0 -43 -180 3 -180 3 0 -55 c0 -46 4 -58 24 -73 21 -17 24 -28 27 -110 2
-50 1 -94 -3 -98 -14 -15 -47 7 -53 35 -6 27 -10 30 -46 30 -35 0 -41 -4 -50
-29 -13 -37 -29 -43 -69 -28 -30 11 -33 10 -61 -20 -27 -31 -33 -33 -95 -33
-110 0 -104 -14 -104 240 l0 220 395 0 395 0 0 -42z m-12 -80 c7 -7 12 -24 12
-39 l0 -28 -151 -3 c-83 -2 -157 1 -165 5 -8 4 -14 23 -14 42 l0 35 153 0
c106 0 157 -4 165 -12z m12 -182 c0 -97 -20 -139 -83 -170 -44 -21 -84 -17
-135 14 -45 27 -62 74 -62 165 l0 75 140 0 140 0 0 -84z m-386 -101 c8 -31 51
-51 81 -37 16 8 24 6 32 -7 8 -13 4 -19 -18 -33 -28 -17 -30 -17 -61 2 -42 25
-84 25 -125 0 -51 -31 -68 -66 -64 -137 1 -27 46 -82 76 -93 21 -8 42 -60 24
-60 -5 0 -9 4 -9 8 0 19 -49 32 -75 20 -36 -16 -53 1 -37 37 15 32 -6 79 -38
88 -26 7 -26 44 0 52 31 10 49 52 36 86 -14 38 1 54 35 39 33 -15 76 2 89 35
13 33 46 33 54 0z m25 -101 c28 -20 14 -42 -17 -25 -46 24 -95 1 -108 -51 -5
-22 0 -34 25 -59 50 -50 37 -69 -17 -24 -35 30 -45 69 -27 111 25 60 94 83
144 48z m-26 -50 c3 -3 -4 -24 -15 -46 l-21 -40 -20 21 c-18 17 -19 24 -9 46
11 24 49 35 65 19z"/>
<path d="M270 915 c0 -13 31 -15 231 -15 180 0 230 3 227 13 -4 9 -61 13 -231
15 -198 2 -227 0 -227 -13z"/>
<path d="M754 919 c-10 -17 13 -36 27 -22 12 12 4 33 -11 33 -5 0 -12 -5 -16
-11z"/>
<path d="M238 763 c34 -2 88 -2 120 0 31 2 3 3 -63 3 -66 0 -92 -1 -57 -3z"/>
<path d="M175 720 c-4 -6 35 -10 109 -10 71 0 116 4 116 10 0 6 -43 10 -109
10 -63 0 -112 -4 -116 -10z"/>
<path d="M97 688 c-25 -13 -21 -26 6 -21 19 4 26 -2 42 -39 10 -24 20 -45 22
-47 4 -6 72 72 73 83 0 5 -10 0 -22 -12 -34 -31 -43 -30 -75 9 -23 29 -33 35
-46 27z"/>
<path d="M288 604 l27 -55 27 30 c17 20 37 31 53 31 15 0 24 4 20 9 -6 11 -63
-3 -79 -19 -15 -15 -20 -13 -40 25 -31 57 -38 40 -8 -21z"/>
<path d="M90 630 c0 -13 40 -89 51 -96 14 -8 11 3 -16 56 -25 48 -35 60 -35
40z"/>
<path d="M207 568 c-41 -50 -40 -64 2 -24 l29 28 24 -36 c34 -53 42 -43 12 17
-15 28 -28 53 -29 55 -1 2 -19 -16 -38 -40z"/>
<path d="M355 543 c-37 -49 -38 -58 -4 -26 19 18 45 36 59 42 l25 10 -30 0
c-21 0 -36 -8 -50 -26z"/>
<path d="M94 468 c-3 -4 28 -8 68 -7 58 0 68 2 49 10 -28 11 -110 9 -117 -3z"/>
<path d="M600 509 c0 -25 33 -22 38 4 2 12 -3 17 -17 17 -15 0 -21 -6 -21 -21z"/>
<path d="M735 520 c-8 -14 3 -30 21 -30 8 0 14 9 14 20 0 21 -24 28 -35 10z"/>
<path d="M579 204 c-20 -6 -32 -41 -17 -50 5 -3 7 -13 3 -21 -9 -25 5 -53 26
-53 12 0 19 -7 19 -20 0 -13 -7 -20 -20 -20 -12 0 -20 7 -20 17 0 9 -3 14 -6
10 -3 -3 -3 -14 0 -25 5 -15 17 -20 54 -22 82 -4 150 1 170 13 15 10 17 153 2
162 -14 8 -190 16 -211 9z m151 -34 c0 -18 -7 -20 -80 -20 -73 0 -80 2 -80 20
0 18 7 20 80 20 73 0 80 -2 80 -20z m60 0 c0 -11 -6 -20 -14 -20 -18 0 -29 16
-21 30 11 18 35 11 35 -10z m-182 -57 c-2 -10 -10 -18 -18 -18 -8 0 -16 8 -18
18 -2 12 3 17 18 17 15 0 20 -5 18 -17z m60 0 c2 -8 -5 -13 -17 -13 -12 0 -21
6 -21 16 0 18 31 15 38 -3z m122 2 c0 -11 -12 -15 -50 -15 -38 0 -50 4 -50 15
0 11 12 15 50 15 38 0 50 -4 50 -15z m-94 -45 c24 0 34 -5 34 -15 0 -11 -12
-15 -50 -15 -44 0 -50 2 -50 21 0 15 4 19 16 15 9 -3 31 -6 50 -6z m94 -10 c0
-13 -7 -20 -20 -20 -19 0 -27 20 -13 33 13 14 33 6 33 -13z"/>
<path d="M490 75 c0 -60 3 -75 15 -75 12 0 15 15 15 75 0 60 -3 75 -15 75 -12
0 -15 -15 -15 -75z"/>
<path d="M850 75 c0 -60 3 -75 15 -75 12 0 15 15 15 75 0 60 -3 75 -15 75 -12
0 -15 -15 -15 -75z"/>
</g>
</svg>
